<svg id="Layer_1" data-name="Layer 1" xmlns="http://www.w3.org/2000/svg" viewBox="0 0 155 117.1"><defs><style>.cls-1{fill:#231f20;}</style></defs><title>bike</title><path class="cls-1" d="M36.8,57.82a13,13,0,0,0-4,2.62,13.38,13.38,0,0,0-3.58,9.65,13.86,13.86,0,0,0,3.78,10,12.66,12.66,0,0,0,8.85,3.38,16.32,16.32,0,0,0,12-5.37V89c-2.39,1.5-6.27,3.29-12.73,3.29-7,0-11.94-2-15.92-6.17-3-3.08-6-8.06-6-15.72a22.36,22.36,0,0,1,6.37-16.21A20.89,20.89,0,0,1,36.8,48.5"/><path class="cls-1" d="M130.67,70.09c0,12.83-9.75,22.18-22.38,22.18S85.91,82.92,85.91,70.09,95.66,48,108.29,48,130.67,57.15,130.67,70.09Zm-9.94.09c0-9.55-6.27-13.42-12.44-13.42S95.86,60.63,95.86,70.18c0,8.06,4.77,13.33,12.43,13.33S120.73,78.24,120.73,70.18Z"/><path class="cls-1" d="M103.61,29.24V36H49.42v-5.4H62V24.83H38.26v5.73h3.51V72.33l61.84-31.51V53.36h7.65V29.24ZM49.42,59.84V43.61H81.3Z"/><rect class="cls-1" x="103.61" y="29.24" width="21.19" height="5.17"/></svg>